<svg xmlns="http://www.w3.org/2000/svg" viewBox="0 0 600 800" width="600" height="800">
  <defs>
    <linearGradient id="bg" x1="0" y1="0" x2="1" y2="1">
      <stop offset="0%" stop-color="#081327"/>
      <stop offset="45%" stop-color="#102a58"/>
      <stop offset="100%" stop-color="#050b18"/>
    </linearGradient>
    <radialGradient id="moonGlow" cx="50%" cy="45%" r="42%">
      <stop offset="0%" stop-color="#dbeafe" stop-opacity="0.9"/>
      <stop offset="40%" stop-color="#93c5fd" stop-opacity="0.36"/>
      <stop offset="100%" stop-color="#93c5fd" stop-opacity="0"/>
    </radialGradient>
    <radialGradient id="archLight" cx="50%" cy="34%" r="60%">
      <stop offset="0%" stop-color="#f8fafc" stop-opacity="0.13"/>
      <stop offset="100%" stop-color="#f8fafc" stop-opacity="0"/>
    </radialGradient>
    <pattern id="stars" width="120" height="120" patternUnits="userSpaceOnUse">
      <circle cx="18" cy="20" r="1.2" fill="#dbeafe" opacity="0.55"/>
      <circle cx="92" cy="38" r="1" fill="#bfdbfe" opacity="0.45"/>
      <circle cx="68" cy="95" r="1.1" fill="#dbeafe" opacity="0.38"/>
      <circle cx="28" cy="88" r="0.8" fill="#bfdbfe" opacity="0.35"/>
      <path d="M58 16l3 8 8 3-8 3-3 8-3-8-8-3 8-3z" fill="none" stroke="#e0f2fe" stroke-width="0.7" opacity="0.55"/>
      <path d="M101 81l2 5 5 2-5 2-2 5-2-5-5-2 5-2z" fill="none" stroke="#e0f2fe" stroke-width="0.55" opacity="0.4"/>
    </pattern>
    <pattern id="tiles" width="64" height="64" patternUnits="userSpaceOnUse">
      <path d="M32 0l32 32-32 32L0 32z" fill="none" stroke="#93c5fd" stroke-width="0.6" opacity="0.16"/>
      <path d="M32 10l22 22-22 22L10 32z" fill="none" stroke="#dbeafe" stroke-width="0.45" opacity="0.1"/>
    </pattern>
    <filter id="softGlow" x="-20%" y="-20%" width="140%" height="140%">
      <feGaussianBlur stdDeviation="14"/>
    </filter>
  </defs>

  <rect width="600" height="800" fill="url(#bg)"/>
  <rect width="600" height="800" fill="url(#stars)"/>
  <rect width="600" height="800" fill="url(#tiles)" opacity="0.55"/>

  <ellipse cx="300" cy="368" rx="248" ry="320" fill="url(#archLight)"/>

  <g opacity="0.2">
    <path d="M126 662c36-192 106-292 174-344 68 52 138 152 174 344" fill="none" stroke="#dbeafe" stroke-width="1.3"/>
    <path d="M156 664c28-158 82-244 144-292 62 48 116 134 144 292" fill="none" stroke="#bfdbfe" stroke-width="0.9" stroke-dasharray="2 10"/>
    <path d="M300 318v346" fill="none" stroke="#dbeafe" stroke-width="0.7" stroke-dasharray="3 12"/>
    <path d="M202 430h196" fill="none" stroke="#bfdbfe" stroke-width="0.65" stroke-dasharray="5 8"/>
    <path d="M180 514h240" fill="none" stroke="#bfdbfe" stroke-width="0.6" stroke-dasharray="4 10"/>
  </g>

  <g transform="translate(300 198)">
    <ellipse cx="0" cy="0" rx="138" ry="110" fill="url(#moonGlow)" filter="url(#softGlow)" opacity="0.85"/>
    <circle cx="-2" cy="0" r="74" fill="none" stroke="#f8fafc" stroke-width="1.6" opacity="0.55"/>
    <circle cx="24" cy="-10" r="58" fill="#081327"/>
    <path d="M-8-76c43 0 78 34 78 76s-35 76-78 76c-6 0-12-1-18-2 30-9 52-37 52-71s-22-62-52-71c6-1 12-2 18-2z" fill="#f8fafc" opacity="0.82"/>
  </g>

  <g fill="none" stroke="#f8fafc" opacity="0.36" stroke-width="0.95">
    <path d="M415 158l4 11 11 4-11 4-4 11-4-11-11-4 11-4z"/>
    <path d="M188 212l3 8 8 3-8 3-3 8-3-8-8-3 8-3z"/>
    <path d="M456 262l2 6 6 2-6 2-2 6-2-6-6-2 6-2z"/>
  </g>

  <g opacity="0.14" stroke="#dbeafe" fill="none">
    <path d="M78 628c42 16 84 24 126 24 34-1 66-5 96-14" stroke-width="0.8"/>
    <path d="M522 628c-42 16-84 24-126 24-34-1-66-5-96-14" stroke-width="0.8"/>
    <path d="M112 690c58 20 120 29 188 29 68 0 130-9 188-29" stroke-width="0.9"/>
  </g>

  <g opacity="0.22" stroke="#dbeafe" fill="none">
    <path d="M90 702h420" stroke-width="0.8"/>
    <path d="M128 702v-40m14 40v-58m15 58v-34m16 34v-82m14 82v-52m14 52v-26m22 26v-92m16 92v-46m16 46v-120m18 120v-64m16 64v-36m18 36v-78m14 78v-44m16 44v-60m18 60v-30" stroke-width="0.8"/>
    <path d="M90 730h420" stroke-width="0.6" stroke-dasharray="2 8"/>
  </g>

  <g opacity="0.18" stroke="#dbeafe" fill="none">
    <rect x="28" y="28" width="544" height="744" rx="22" stroke-width="1"/>
    <rect x="42" y="42" width="516" height="716" rx="18" stroke-width="0.7" stroke-dasharray="3 9"/>
  </g>
</svg>
