<svg xmlns="http://www.w3.org/2000/svg" viewBox="0 0 600 800" width="600" height="800">
  <defs>
    <linearGradient id="bg" x1="0" y1="0" x2="1" y2="1">
      <stop offset="0%" stop-color="#120907"/>
      <stop offset="46%" stop-color="#3a2214"/>
      <stop offset="100%" stop-color="#11170e"/>
    </linearGradient>
    <radialGradient id="dawn" cx="50%" cy="42%" r="54%">
      <stop offset="0%" stop-color="#f4d58b" stop-opacity="0.24"/>
      <stop offset="48%" stop-color="#f4d58b" stop-opacity="0.09"/>
      <stop offset="100%" stop-color="#f4d58b" stop-opacity="0"/>
    </radialGradient>
    <pattern id="stars" width="120" height="120" patternUnits="userSpaceOnUse">
      <circle cx="22" cy="18" r="1.2" fill="#f8e6b5" opacity="0.42"/>
      <circle cx="92" cy="34" r="0.9" fill="#f8e6b5" opacity="0.3"/>
      <circle cx="72" cy="92" r="1" fill="#f8e6b5" opacity="0.28"/>
      <path d="M56 18l3 8 8 3-8 3-3 8-3-8-8-3 8-3z" fill="none" stroke="#f8e6b5" stroke-width="0.65" opacity="0.3"/>
    </pattern>
    <filter id="softGlow" x="-20%" y="-20%" width="140%" height="140%">
      <feGaussianBlur stdDeviation="16"/>
    </filter>
  </defs>

  <rect width="600" height="800" fill="url(#bg)"/>
  <rect width="600" height="800" fill="url(#stars)"/>
  <ellipse cx="300" cy="354" rx="234" ry="300" fill="url(#dawn)" filter="url(#softGlow)"/>

  <g transform="translate(300 176)">
    <ellipse cx="0" cy="0" rx="96" ry="74" fill="#f8e6b5" opacity="0.08" filter="url(#softGlow)"/>
    <circle cx="-10" cy="0" r="44" fill="none" stroke="#f8e6b5" stroke-width="1.2" opacity="0.46"/>
    <circle cx="8" cy="-8" r="34" fill="#120907"/>
  </g>

  <g opacity="0.16" stroke="#f8e6b5" fill="none">
    <path d="M132 680c28-208 88-324 168-392c80 68 140 184 168 392" stroke-width="1.05"/>
    <path d="M164 680c22-166 69-258 136-314c67 56 114 148 136 314" stroke-width="0.72" stroke-dasharray="3 11"/>
    <path d="M300 294v386" stroke-width="0.66" stroke-dasharray="4 14"/>
    <path d="M198 388h204M178 472h244M164 548h272" stroke-width="0.66" stroke-dasharray="4 12"/>
  </g>

  <g opacity="0.18" fill="#20120a">
    <path d="M0 640c74-42 138-62 194-62s120 20 194 62v160H0z" transform="translate(106 0)"/>
  </g>
  <g opacity="0.22" fill="#161913">
    <path d="M0 674c64-30 128-46 194-46s130 16 194 46v126H0z" transform="translate(106 0)"/>
  </g>

  <g opacity="0.24" stroke="#f4d58b" fill="none">
    <path d="M120 122h360" stroke-width="0.82"/>
    <path d="M144 142h312" stroke-width="0.52" stroke-dasharray="2 8"/>
    <path d="M120 678h360" stroke-width="0.82"/>
    <path d="M144 658h312" stroke-width="0.52" stroke-dasharray="2 8"/>
    <rect x="28" y="28" width="544" height="744" rx="24" stroke-width="0.92"/>
    <rect x="42" y="42" width="516" height="716" rx="20" stroke-width="0.62" stroke-dasharray="3 10"/>
  </g>

  <g opacity="0.26" stroke="#f4d58b" fill="none" stroke-linejoin="round">
    <path d="M166 646l26-34 26 34v46h-52z" stroke-width="0.9"/>
    <path d="M222 628l34-48 34 48v64h-68z" stroke-width="0.95"/>
    <path d="M294 612l42-62 42 62v80h-84z" stroke-width="1.05"/>
    <path d="M390 628l34-48 34 48v64h-68z" stroke-width="0.95"/>
    <path d="M458 646l26-34 26 34v46h-52z" stroke-width="0.9"/>
    <path d="M166 646h344" stroke-width="0.6" opacity="0.5"/>
  </g>

  <g opacity="0.18" stroke="#f8e6b5" fill="none">
    <path d="M132 722c54 12 110 18 168 18c58 0 114-6 168-18" stroke-width="0.72"/>
    <path d="M190 206l4 10 10 4-10 4-4 10-4-10-10-4 10-4z" stroke-width="0.8"/>
    <path d="M410 220l3 8 8 3-8 3-3 8-3-8-8-3 8-3z" stroke-width="0.72"/>
  </g>
</svg>
