<svg xmlns="http://www.w3.org/2000/svg" viewBox="0 0 600 800" width="600" height="800">
  <defs>
    <linearGradient id="bg" x1="0" y1="0" x2="1" y2="1">
      <stop offset="0%" stop-color="#07151b"/>
      <stop offset="50%" stop-color="#123240"/>
      <stop offset="100%" stop-color="#050a12"/>
    </linearGradient>
    <radialGradient id="windowGlow" cx="50%" cy="42%" r="56%">
      <stop offset="0%" stop-color="#8de2d3" stop-opacity="0.2"/>
      <stop offset="55%" stop-color="#f7d991" stop-opacity="0.08"/>
      <stop offset="100%" stop-color="#f7d991" stop-opacity="0"/>
    </radialGradient>
    <pattern id="arabesque" width="96" height="96" patternUnits="userSpaceOnUse">
      <path d="M48 18c12 0 22 10 22 22c0 12-10 22-22 22c-12 0-22-10-22-22c0-12 10-22 22-22z" fill="none" stroke="#7ad6c8" stroke-width="0.6" opacity="0.22"/>
      <path d="M48 6c6 12 16 20 30 24c-14 4-24 12-30 24c-6-12-16-20-30-24c14-4 24-12 30-24z" fill="none" stroke="#f7d991" stroke-width="0.55" opacity="0.2"/>
      <path d="M12 48c12-6 20-16 24-30c4 14 12 24 24 30c-12 6-20 16-24 30c-4-14-12-24-24-30z" fill="none" stroke="#7ad6c8" stroke-width="0.45" opacity="0.14"/>
      <circle cx="48" cy="48" r="3" fill="none" stroke="#f7d991" stroke-width="0.45" opacity="0.24"/>
    </pattern>
    <filter id="softGlow" x="-20%" y="-20%" width="140%" height="140%">
      <feGaussianBlur stdDeviation="16"/>
    </filter>
  </defs>

  <rect width="600" height="800" fill="url(#bg)"/>
  <rect width="600" height="800" fill="url(#arabesque)" opacity="0.74"/>
  <ellipse cx="300" cy="360" rx="236" ry="306" fill="url(#windowGlow)" filter="url(#softGlow)"/>

  <g opacity="0.18" stroke="#f7d991" fill="none">
    <path d="M132 682c30-214 90-332 168-394c78 62 138 180 168 394" stroke-width="1.05"/>
    <path d="M164 682c24-170 71-265 136-320c65 55 112 150 136 320" stroke-width="0.72" stroke-dasharray="3 11"/>
    <path d="M300 294v388" stroke-width="0.68" stroke-dasharray="4 14"/>
    <path d="M198 378h204M178 462h244M160 544h280" stroke-width="0.68" stroke-dasharray="4 12"/>
  </g>

  <g opacity="0.24" stroke="#7ad6c8" fill="none">
    <path d="M94 148c28-10 54-26 78-48c-4 30-18 58-42 82" stroke-width="0.9"/>
    <path d="M506 148c-28-10-54-26-78-48c4 30 18 58 42 82" stroke-width="0.9"/>
    <path d="M102 654c36-10 68-28 96-54c6 26 16 50 30 72" stroke-width="0.85"/>
    <path d="M498 654c-36-10-68-28-96-54c-6 26-16 50-30 72" stroke-width="0.85"/>
    <path d="M122 238c42 18 66 46 74 84" stroke-width="0.7"/>
    <path d="M478 238c-42 18-66 46-74 84" stroke-width="0.7"/>
  </g>

  <g transform="translate(300 228)" opacity="0.26" stroke="#f7d991" fill="none">
    <path d="M0-70l8 20 20 8-20 8-8 20-8-20-20-8 20-8z" stroke-width="1"/>
    <circle cx="0" cy="0" r="42" stroke-width="0.85"/>
    <circle cx="0" cy="0" r="58" stroke-width="0.55" stroke-dasharray="3 9"/>
  </g>

  <g opacity="0.16" stroke="#f7d991" fill="none">
    <path d="M120 122h360" stroke-width="0.85"/>
    <path d="M142 142h316" stroke-width="0.52" stroke-dasharray="2 8"/>
    <path d="M120 678h360" stroke-width="0.85"/>
    <path d="M142 658h316" stroke-width="0.52" stroke-dasharray="2 8"/>
    <rect x="28" y="28" width="544" height="744" rx="24" stroke-width="0.95"/>
    <rect x="42" y="42" width="516" height="716" rx="20" stroke-width="0.62" stroke-dasharray="3 10"/>
  </g>
</svg>
