<svg xmlns="http://www.w3.org/2000/svg" viewBox="0 0 600 800" width="600" height="800">
  <defs>
    <linearGradient id="bg" x1="0" y1="0" x2="1" y2="1">
      <stop offset="0%" stop-color="#050607"/>
      <stop offset="46%" stop-color="#10211b"/>
      <stop offset="100%" stop-color="#090807"/>
    </linearGradient>
    <radialGradient id="velvet" cx="50%" cy="46%" r="58%">
      <stop offset="0%" stop-color="#f6d79b" stop-opacity="0.18"/>
      <stop offset="50%" stop-color="#d9a38b" stop-opacity="0.08"/>
      <stop offset="100%" stop-color="#d9a38b" stop-opacity="0"/>
    </radialGradient>
    <pattern id="petals" width="110" height="110" patternUnits="userSpaceOnUse">
      <path d="M55 16c8 16 22 26 40 30c-18 4-32 14-40 30c-8-16-22-26-40-30c18-4 32-14 40-30z" fill="none" stroke="#d8b56b" stroke-width="0.45" opacity="0.14"/>
      <circle cx="55" cy="55" r="5" fill="none" stroke="#d9a38b" stroke-width="0.35" opacity="0.14"/>
      <path d="M20 90c10-8 16-18 18-30c6 10 14 18 26 24c-14 2-26 8-34 18c-2-6-4-10-10-12z" fill="none" stroke="#d9a38b" stroke-width="0.35" opacity="0.1"/>
    </pattern>
    <filter id="softGlow" x="-20%" y="-20%" width="140%" height="140%">
      <feGaussianBlur stdDeviation="15"/>
    </filter>
  </defs>

  <rect width="600" height="800" fill="url(#bg)"/>
  <rect width="600" height="800" fill="url(#petals)" opacity="0.7"/>
  <ellipse cx="300" cy="372" rx="228" ry="304" fill="url(#velvet)" filter="url(#softGlow)"/>

  <g opacity="0.16" stroke="#f6d79b" fill="none">
    <path d="M132 682c28-212 88-330 168-392c80 62 140 180 168 392" stroke-width="1.02"/>
    <path d="M164 682c22-170 70-264 136-318c66 54 114 148 136 318" stroke-width="0.72" stroke-dasharray="3 11"/>
    <path d="M300 296v386" stroke-width="0.66" stroke-dasharray="4 14"/>
  </g>

  <g opacity="0.26" stroke="#d8b56b" fill="none">
    <path d="M108 164c26-10 52-34 78-72c6 38 0 74-18 108" stroke-width="0.95"/>
    <path d="M492 164c-26-10-52-34-78-72c-6 38 0 74 18 108" stroke-width="0.95"/>
    <path d="M112 640c42-14 72-44 92-92c16 28 36 50 62 68" stroke-width="0.88"/>
    <path d="M488 640c-42-14-72-44-92-92c-16 28-36 50-62 68" stroke-width="0.88"/>
  </g>

  <g opacity="0.3" stroke="#d9a38b" fill="none" stroke-linecap="round">
    <path d="M126 210c24-18 52-28 84-30c-26 16-44 40-54 72" stroke-width="0.86"/>
    <path d="M474 210c-24-18-52-28-84-30c26 16 44 40 54 72" stroke-width="0.86"/>
    <path d="M130 598c34-16 58-42 72-78c18 24 40 42 68 56" stroke-width="0.8"/>
    <path d="M470 598c-34-16-58-42-72-78c-18 24-40 42-68 56" stroke-width="0.8"/>
  </g>

  <g opacity="0.18" stroke="#f6d79b" fill="none">
    <path d="M120 126h360" stroke-width="0.84"/>
    <path d="M142 146h316" stroke-width="0.54" stroke-dasharray="2 8"/>
    <path d="M120 674h360" stroke-width="0.84"/>
    <path d="M142 654h316" stroke-width="0.54" stroke-dasharray="2 8"/>
    <rect x="28" y="28" width="544" height="744" rx="24" stroke-width="0.96"/>
    <rect x="42" y="42" width="516" height="716" rx="20" stroke-width="0.64" stroke-dasharray="3 10"/>
  </g>

  <g transform="translate(300 224)" opacity="0.28" stroke="#f6d79b" fill="none">
    <path d="M0-62l8 20 20 8-20 8-8 20-8-20-20-8 20-8z" stroke-width="1"/>
    <circle cx="0" cy="0" r="40" stroke-width="0.82"/>
    <circle cx="0" cy="0" r="56" stroke-width="0.55" stroke-dasharray="3 9"/>
  </g>
</svg>
