<svg xmlns="http://www.w3.org/2000/svg" viewBox="0 0 600 800" width="600" height="800">
  <defs>
    <linearGradient id="bg" x1="0" y1="0" x2="1" y2="1">
      <stop offset="0%" stop-color="#040807"/>
      <stop offset="52%" stop-color="#10231a"/>
      <stop offset="100%" stop-color="#050908"/>
    </linearGradient>
    <radialGradient id="courtyardLight" cx="50%" cy="68%" r="44%">
      <stop offset="0%" stop-color="#f3d58a" stop-opacity="0.22"/>
      <stop offset="60%" stop-color="#f3d58a" stop-opacity="0.07"/>
      <stop offset="100%" stop-color="#f3d58a" stop-opacity="0"/>
    </radialGradient>
    <pattern id="courtyard" width="72" height="72" patternUnits="userSpaceOnUse">
      <rect x="8" y="8" width="56" height="56" rx="8" fill="none" stroke="#d8b56b" stroke-width="0.45" opacity="0.14"/>
      <rect x="18" y="18" width="36" height="36" rx="4" fill="none" stroke="#d8b56b" stroke-width="0.3" opacity="0.1"/>
      <circle cx="36" cy="36" r="3" fill="none" stroke="#d8b56b" stroke-width="0.28" opacity="0.1"/>
    </pattern>
    <filter id="softGlow" x="-20%" y="-20%" width="140%" height="140%">
      <feGaussianBlur stdDeviation="14"/>
    </filter>
  </defs>

  <rect width="600" height="800" fill="url(#bg)"/>
  <rect width="600" height="800" fill="url(#courtyard)" opacity="0.86"/>
  <ellipse cx="300" cy="520" rx="226" ry="220" fill="url(#courtyardLight)" filter="url(#softGlow)"/>

  <g opacity="0.15" stroke="#f3d58a" fill="none">
    <path d="M144 138h312" stroke-width="0.82"/>
    <path d="M166 158h268" stroke-width="0.5" stroke-dasharray="2 8"/>
    <path d="M300 176v220" stroke-width="0.62" stroke-dasharray="4 12"/>
    <path d="M188 258h224M168 338h264M152 418h296" stroke-width="0.6" stroke-dasharray="4 10"/>
  </g>

  <g opacity="0.2" stroke="#f3d58a" fill="none">
    <path d="M124 686c26-160 84-246 176-296c92 50 150 136 176 296" stroke-width="0.82"/>
    <path d="M146 704c46 18 98 28 154 28c56 0 108-10 154-28" stroke-width="0.7"/>
  </g>

  <g transform="translate(300 526)" opacity="0.34">
    <ellipse cx="0" cy="0" rx="88" ry="58" fill="none" stroke="#f3d58a" stroke-width="1"/>
    <ellipse cx="0" cy="0" rx="126" ry="82" fill="none" stroke="#f3d58a" stroke-width="0.82" opacity="0.8"/>
    <ellipse cx="0" cy="0" rx="164" ry="106" fill="none" stroke="#f3d58a" stroke-width="0.68" opacity="0.64"/>
    <ellipse cx="0" cy="0" rx="202" ry="130" fill="none" stroke="#f3d58a" stroke-width="0.56" opacity="0.5"/>
  </g>

  <g transform="translate(300 520)" opacity="0.48" stroke="#f3d58a" fill="none" stroke-linejoin="round">
    <rect x="-56" y="-72" width="112" height="122" stroke-width="1.35"/>
    <polygon points="-56,-72 -84,-92 28,-92 56,-72" stroke-width="1.05"/>
    <polygon points="56,-72 28,-92 28,30 56,50" stroke-width="0.92"/>
    <path d="M-56 -28h112M-56 2h112" stroke-width="0.6" opacity="0.75"/>
    <path d="M-12 -72v40a12 12 0 0 0 24 0v-40" stroke-width="0.72"/>
    <rect x="-10" y="-54" width="20" height="36" stroke-width="0.65"/>
  </g>

  <g fill="#f3d58a" opacity="0.16">
    <circle cx="386" cy="516" r="1.6"/>
    <circle cx="364" cy="486" r="1.5"/>
    <circle cx="332" cy="468" r="1.4"/>
    <circle cx="270" cy="466" r="1.5"/>
    <circle cx="238" cy="486" r="1.4"/>
    <circle cx="214" cy="520" r="1.5"/>
    <circle cx="426" cy="528" r="1.6"/>
    <circle cx="392" cy="454" r="1.4"/>
    <circle cx="342" cy="426" r="1.4"/>
    <circle cx="258" cy="424" r="1.4"/>
    <circle cx="206" cy="458" r="1.4"/>
    <circle cx="174" cy="532" r="1.5"/>
  </g>

  <g opacity="0.18" stroke="#f3d58a" fill="none">
    <rect x="28" y="28" width="544" height="744" rx="24" stroke-width="0.96"/>
    <rect x="42" y="42" width="516" height="716" rx="20" stroke-width="0.62" stroke-dasharray="3 10"/>
    <path d="M120 122h360M120 678h360" stroke-width="0.72"/>
  </g>
</svg>
