<svg xmlns="http://www.w3.org/2000/svg" viewBox="0 0 600 800" width="600" height="800">
  <defs>
    <linearGradient id="bg" x1="0" y1="0" x2="1" y2="1">
      <stop offset="0%" stop-color="#090713"/>
      <stop offset="48%" stop-color="#140c28"/>
      <stop offset="100%" stop-color="#04040b"/>
    </linearGradient>
    <linearGradient id="noor" x1="0" y1="0" x2="0" y2="1">
      <stop offset="0%" stop-color="#ddd6fe" stop-opacity="0.9"/>
      <stop offset="45%" stop-color="#a78bfa" stop-opacity="0.28"/>
      <stop offset="100%" stop-color="#a78bfa" stop-opacity="0"/>
    </linearGradient>
    <radialGradient id="centerGlow" cx="50%" cy="48%" r="48%">
      <stop offset="0%" stop-color="#c4b5fd" stop-opacity="0.22"/>
      <stop offset="100%" stop-color="#c4b5fd" stop-opacity="0"/>
    </radialGradient>
    <pattern id="stars" width="120" height="120" patternUnits="userSpaceOnUse">
      <circle cx="18" cy="26" r="1" fill="#ddd6fe" opacity="0.5"/>
      <circle cx="88" cy="20" r="0.9" fill="#c4b5fd" opacity="0.42"/>
      <circle cx="94" cy="82" r="0.8" fill="#ddd6fe" opacity="0.35"/>
      <circle cx="42" cy="98" r="1.1" fill="#c4b5fd" opacity="0.32"/>
      <path d="M58 14l2 6 6 2-6 2-2 6-2-6-6-2 6-2z" fill="none" stroke="#ddd6fe" stroke-width="0.55" opacity="0.45"/>
      <path d="M26 64l3 8 8 3-8 3-3 8-3-8-8-3 8-3z" fill="none" stroke="#c4b5fd" stroke-width="0.6" opacity="0.34"/>
    </pattern>
  </defs>

  <rect width="600" height="800" fill="url(#bg)"/>
  <rect width="600" height="800" fill="url(#stars)"/>
  <ellipse cx="300" cy="390" rx="250" ry="338" fill="url(#centerGlow)"/>

  <g opacity="0.28">
    <rect x="286" y="0" width="28" height="368" fill="url(#noor)"/>
    <path d="M272 0h56c0 130-9 238-28 324-19-86-28-194-28-324z" fill="url(#noor)" opacity="0.42"/>
  </g>

  <g transform="translate(300 394)" fill="none" stroke="#c4b5fd">
    <circle cx="0" cy="0" r="38" stroke-width="1.1" opacity="0.3"/>
    <circle cx="0" cy="0" r="72" stroke-width="0.9" opacity="0.24"/>
    <circle cx="0" cy="0" r="110" stroke-width="0.8" opacity="0.18" stroke-dasharray="4 10"/>
    <circle cx="0" cy="0" r="156" stroke-width="0.7" opacity="0.16" stroke-dasharray="3 12"/>
    <circle cx="0" cy="0" r="208" stroke-width="0.6" opacity="0.14" stroke-dasharray="2 14"/>
    <circle cx="0" cy="0" r="266" stroke-width="0.5" opacity="0.1" stroke-dasharray="2 18"/>
    <path d="M0-38l11 27 27 11-27 11-11 27-11-27-27-11 27-11z" stroke-width="1.1" opacity="0.35"/>
    <circle cx="0" cy="0" r="16" stroke-width="0.75" opacity="0.24"/>
  </g>

  <g opacity="0.12" stroke="#ddd6fe" fill="none">
    <path d="M126 672c30-188 92-286 174-334 82 48 144 146 174 334" stroke-width="1"/>
    <path d="M156 672c24-154 76-236 144-286 68 50 120 132 144 286" stroke-width="0.7" stroke-dasharray="3 11"/>
  </g>

  <g opacity="0.18" stroke="#c4b5fd" fill="none">
    <path d="M300 328v344" stroke-width="0.75" stroke-dasharray="3 12"/>
    <path d="M206 434h188" stroke-width="0.7" stroke-dasharray="5 8"/>
    <path d="M194 516h212" stroke-width="0.6" stroke-dasharray="4 10"/>
  </g>

  <g opacity="0.2" stroke="#ddd6fe" fill="none">
    <path d="M84 706h432" stroke-width="0.8"/>
    <path d="M108 706v-22m16 22v-58m18 58v-32m18 32v-84m20 84v-46m22 46v-112m18 112v-66m18 66v-34m22 34v-94m18 94v-52m18 52v-120m22 120v-70m18 70v-38m18 38v-60m20 60v-28" stroke-width="0.8"/>
    <path d="M96 732h408" stroke-width="0.6" stroke-dasharray="2 9"/>
  </g>

  <g opacity="0.15" stroke="#ddd6fe" fill="none">
    <rect x="26" y="26" width="548" height="748" rx="22" stroke-width="1"/>
    <rect x="42" y="42" width="516" height="716" rx="18" stroke-width="0.7" stroke-dasharray="3 10"/>
  </g>
</svg>
