<svg xmlns="http://www.w3.org/2000/svg" viewBox="0 0 600 800" width="600" height="800">
  <defs>
    <linearGradient id="bg" x1="0" y1="0" x2="1" y2="1">
      <stop offset="0%" stop-color="#2b170d"/>
      <stop offset="48%" stop-color="#5a3316"/>
      <stop offset="100%" stop-color="#1a0d09"/>
    </linearGradient>
    <radialGradient id="centerGlow" cx="50%" cy="38%" r="54%">
      <stop offset="0%" stop-color="#fde68a" stop-opacity="0.18"/>
      <stop offset="100%" stop-color="#fde68a" stop-opacity="0"/>
    </radialGradient>
    <pattern id="floral" width="88" height="88" patternUnits="userSpaceOnUse">
      <path d="M44 12c7 12 16 20 28 24-12 4-21 12-28 24-7-12-16-20-28-24 12-4 21-12 28-24z" fill="none" stroke="#fde68a" stroke-width="0.55" opacity="0.18"/>
      <circle cx="44" cy="44" r="10" fill="none" stroke="#f8fafc" stroke-width="0.45" opacity="0.12"/>
      <path d="M16 16c8 8 12 12 20 20M72 16c-8 8-12 12-20 20M16 72c8-8 12-12 20-20M72 72c-8-8-12-12-20-20" fill="none" stroke="#fde68a" stroke-width="0.4" opacity="0.1"/>
    </pattern>
    <filter id="softGlow" x="-20%" y="-20%" width="140%" height="140%">
      <feGaussianBlur stdDeviation="16"/>
    </filter>
  </defs>

  <rect width="600" height="800" fill="url(#bg)"/>
  <rect width="600" height="800" fill="url(#floral)" opacity="0.7"/>
  <ellipse cx="300" cy="352" rx="250" ry="330" fill="url(#centerGlow)"/>

  <g opacity="0.18" stroke="#fef3c7" fill="none">
    <path d="M128 678c30-190 92-292 172-340 80 48 142 150 172 340" stroke-width="1.1"/>
    <path d="M158 678c24-156 74-242 142-292 68 50 118 136 142 292" stroke-width="0.75" stroke-dasharray="3 10"/>
    <path d="M214 448h172" stroke-width="0.7" stroke-dasharray="5 8"/>
    <path d="M206 522h188" stroke-width="0.6" stroke-dasharray="4 10"/>
  </g>

  <g transform="translate(300 226)">
    <ellipse cx="0" cy="0" rx="138" ry="94" fill="#fde68a" opacity="0.08" filter="url(#softGlow)"/>
    <circle cx="-38" cy="0" r="46" fill="none" stroke="#fde68a" stroke-width="1.6" opacity="0.54"/>
    <circle cx="38" cy="0" r="46" fill="none" stroke="#fde68a" stroke-width="1.6" opacity="0.54"/>
    <circle cx="-38" cy="0" r="31" fill="none" stroke="#f8fafc" stroke-width="0.7" opacity="0.18"/>
    <circle cx="38" cy="0" r="31" fill="none" stroke="#f8fafc" stroke-width="0.7" opacity="0.18"/>
    <path d="M-2-26c10 7 16 15 18 26-8 0-16 3-24 10-4-12-2-24 6-36z" fill="#fde68a" opacity="0.22"/>
    <path d="M-8-54l8 18 18 8-18 8-8 18-8-18-18-8 18-8z" fill="none" stroke="#fde68a" stroke-width="0.85" opacity="0.38"/>
  </g>

  <g opacity="0.2" stroke="#fde68a" fill="none">
    <path d="M118 138c36 22 74 34 112 34 28 0 54-6 80-18 26 12 52 18 80 18 38 0 76-12 112-34" stroke-width="0.85"/>
    <path d="M146 168c28 16 56 24 84 24 25 0 52-7 80-22 28 15 55 22 80 22 28 0 56-8 84-24" stroke-width="0.65" stroke-dasharray="4 9"/>
  </g>

  <g opacity="0.22" stroke="#fde68a" fill="none">
    <path d="M88 82c20 8 40 23 56 48 28-6 58-7 88 4 18-20 40-32 68-38 28 6 50 18 68 38 30-11 60-10 88-4 16-25 36-40 56-48" stroke-width="0.9"/>
    <path d="M80 702c24-10 44-26 60-52 30 9 60 11 92 4 22 22 45 35 68 40 23-5 46-18 68-40 32 7 62 5 92-4 16 26 36 42 60 52" stroke-width="0.9"/>
  </g>

  <g opacity="0.16" stroke="#f8fafc" fill="none">
    <rect x="26" y="26" width="548" height="748" rx="22" stroke-width="1"/>
    <rect x="42" y="42" width="516" height="716" rx="18" stroke-width="0.7" stroke-dasharray="3 11"/>
  </g>

  <g opacity="0.18" stroke="#fde68a" fill="none">
    <path d="M74 118c14 0 26 12 26 26s-12 26-26 26" stroke-width="0.8"/>
    <path d="M526 118c-14 0-26 12-26 26s12 26 26 26" stroke-width="0.8"/>
    <path d="M74 682c14 0 26-12 26-26s-12-26-26-26" stroke-width="0.8"/>
    <path d="M526 682c-14 0-26-12-26-26s12-26 26-26" stroke-width="0.8"/>
  </g>
</svg>
