<svg xmlns="http://www.w3.org/2000/svg" viewBox="0 0 600 800" width="600" height="800">
  <defs>
    <linearGradient id="bg" x1="0" y1="0" x2="1" y2="1">
      <stop offset="0%" stop-color="#180a1a"/>
      <stop offset="50%" stop-color="#261138"/>
      <stop offset="100%" stop-color="#090612"/>
    </linearGradient>
    <radialGradient id="lanternGlow" cx="50%" cy="36%" r="36%">
      <stop offset="0%" stop-color="#fde68a" stop-opacity="0.95"/>
      <stop offset="35%" stop-color="#fbbf24" stop-opacity="0.38"/>
      <stop offset="100%" stop-color="#fbbf24" stop-opacity="0"/>
    </radialGradient>
    <radialGradient id="upperAura" cx="50%" cy="18%" r="60%">
      <stop offset="0%" stop-color="#fcd34d" stop-opacity="0.12"/>
      <stop offset="100%" stop-color="#fcd34d" stop-opacity="0"/>
    </radialGradient>
    <pattern id="stars" width="90" height="90" patternUnits="userSpaceOnUse">
      <circle cx="14" cy="20" r="0.9" fill="#fef3c7" opacity="0.4"/>
      <circle cx="58" cy="14" r="1.1" fill="#fde68a" opacity="0.3"/>
      <circle cx="72" cy="56" r="0.8" fill="#fef3c7" opacity="0.34"/>
      <circle cx="24" cy="70" r="0.75" fill="#fde68a" opacity="0.28"/>
      <path d="M44 38l2 5 5 2-5 2-2 5-2-5-5-2 5-2z" fill="none" stroke="#fde68a" stroke-width="0.55" opacity="0.4"/>
    </pattern>
    <pattern id="mashrabiya" width="72" height="72" patternUnits="userSpaceOnUse">
      <path d="M36 0l20 20-20 20-20-20z" fill="none" stroke="#fbbf24" stroke-width="0.55" opacity="0.15"/>
      <path d="M36 16l20 20-20 20-20-20z" fill="none" stroke="#fde68a" stroke-width="0.45" opacity="0.1"/>
      <circle cx="36" cy="36" r="8" fill="none" stroke="#fde68a" stroke-width="0.45" opacity="0.12"/>
    </pattern>
    <filter id="softBlur" x="-25%" y="-25%" width="150%" height="150%">
      <feGaussianBlur stdDeviation="18"/>
    </filter>
  </defs>

  <rect width="600" height="800" fill="url(#bg)"/>
  <rect width="600" height="800" fill="url(#stars)"/>
  <rect width="600" height="800" fill="url(#mashrabiya)" opacity="0.5"/>
  <ellipse cx="300" cy="170" rx="260" ry="230" fill="url(#upperAura)"/>

  <path d="M68 110c76-18 152-27 232-27s156 9 232 27" fill="none" stroke="#fde68a" stroke-width="0.8" opacity="0.2" stroke-dasharray="4 8"/>
  <path d="M94 142c66-14 135-21 206-21 71 0 140 7 206 21" fill="none" stroke="#fde68a" stroke-width="0.6" opacity="0.14" stroke-dasharray="3 10"/>

  <g transform="translate(300 274)">
    <ellipse cx="0" cy="16" rx="142" ry="178" fill="url(#lanternGlow)" filter="url(#softBlur)" opacity="0.92"/>
    <line x1="0" y1="-190" x2="0" y2="-142" stroke="#fde68a" stroke-width="1.2" opacity="0.42"/>
    <line x1="-12" y1="-200" x2="12" y2="-200" stroke="#fde68a" stroke-width="0.9" opacity="0.26"/>
    <path d="M-18-142h36l10 18h-56z" fill="none" stroke="#fde68a" stroke-width="1" opacity="0.38"/>
    <path d="M-84-124h168l18 36-8 168-22 54H-72l-22-54-8-168z" fill="none" stroke="#fde68a" stroke-width="1.3" opacity="0.34"/>
    <path d="M-84-124c19 24 43 38 84 38s65-14 84-38" fill="none" stroke="#fde68a" stroke-width="0.95" opacity="0.28"/>
    <path d="M-102 44h204" fill="none" stroke="#fde68a" stroke-width="0.8" opacity="0.2" stroke-dasharray="4 8"/>
    <path d="M-92 86h184" fill="none" stroke="#fde68a" stroke-width="0.7" opacity="0.18" stroke-dasharray="4 10"/>
    <path d="M-72 134h144" fill="none" stroke="#fde68a" stroke-width="0.8" opacity="0.18"/>
    <path d="M-64 134l16 28h96l16-28" fill="none" stroke="#fde68a" stroke-width="1" opacity="0.28"/>
    <line x1="0" y1="162" x2="0" y2="194" stroke="#fde68a" stroke-width="0.9" opacity="0.26"/>
    <path d="M-14 196h28" fill="none" stroke="#fde68a" stroke-width="0.85" opacity="0.24"/>

    <g opacity="0.28" stroke="#fde68a" fill="none">
      <path d="M-52-74c16 10 32 16 52 16s36-6 52-16" stroke-width="0.8"/>
      <path d="M-44-26c12 7 26 11 44 11s32-4 44-11" stroke-width="0.75"/>
      <path d="M-36 22c10 5 22 8 36 8s26-3 36-8" stroke-width="0.7"/>
    </g>

    <path d="M0-28l8 24 24 8-24 8-8 24-8-24-24-8 24-8z" fill="none" stroke="#fef3c7" stroke-width="1.1" opacity="0.62"/>
    <circle cx="0" cy="4" r="18" fill="none" stroke="#fde68a" stroke-width="0.75" opacity="0.34"/>
  </g>

  <g opacity="0.12" stroke="#fde68a" fill="none">
    <path d="M126 690c28-144 82-230 174-278 92 48 146 134 174 278" stroke-width="1"/>
    <path d="M164 690c22-112 68-180 136-220 68 40 114 108 136 220" stroke-width="0.7" stroke-dasharray="3 10"/>
    <path d="M216 736h168" stroke-width="0.8"/>
  </g>

  <g opacity="0.18" stroke="#fde68a" fill="none">
    <rect x="26" y="26" width="548" height="748" rx="22" stroke-width="1"/>
    <rect x="40" y="40" width="520" height="720" rx="18" stroke-width="0.7" stroke-dasharray="3 10"/>
  </g>
</svg>
