<svg xmlns="http://www.w3.org/2000/svg" viewBox="0 0 1200 1600" width="1200" height="1600">
  <defs>
    <linearGradient id="wall" x1="0" y1="0" x2="0" y2="1">
      <stop offset="0%" stop-color="#b7917a"/>
      <stop offset="62%" stop-color="#a57a65"/>
      <stop offset="100%" stop-color="#8c664f"/>
    </linearGradient>
    <linearGradient id="floor" x1="0" y1="0" x2="0" y2="1">
      <stop offset="0%" stop-color="#ecdcc6"/>
      <stop offset="100%" stop-color="#c7b193"/>
    </linearGradient>
    <linearGradient id="sky" x1="0" y1="0" x2="0" y2="1">
      <stop offset="0%" stop-color="#2d6697"/>
      <stop offset="100%" stop-color="#163a63"/>
    </linearGradient>
    <linearGradient id="gold" x1="0" y1="0" x2="0" y2="1">
      <stop offset="0%" stop-color="#efc764"/>
      <stop offset="100%" stop-color="#a86f1e"/>
    </linearGradient>
    <linearGradient id="lanternGlass" x1="0" y1="0" x2="0" y2="1">
      <stop offset="0%" stop-color="#fff0be"/>
      <stop offset="100%" stop-color="#f0ba53"/>
    </linearGradient>
    <linearGradient id="rug" x1="0" y1="0" x2="0" y2="1">
      <stop offset="0%" stop-color="#4f7a9b"/>
      <stop offset="100%" stop-color="#34566f"/>
    </linearGradient>
    <pattern id="panelPattern" width="150" height="150" patternUnits="userSpaceOnUse">
      <g fill="none" stroke="#e3cfaf" stroke-width="2" opacity="0.22">
        <path d="M75 14l31 31-31 31-31-31z"/>
        <path d="M75 74l31 31-31 31-31-31z"/>
        <path d="M15 74l31 31-31 31-31-31z"/>
        <path d="M135 74l31 31-31 31-31-31z"/>
        <circle cx="75" cy="75" r="46"/>
      </g>
    </pattern>
    <filter id="glow" x="-50%" y="-50%" width="200%" height="200%">
      <feGaussianBlur stdDeviation="14"/>
    </filter>
  </defs>

  <rect width="1200" height="1600" fill="url(#wall)"/>
  <rect width="1200" height="1080" fill="url(#panelPattern)" opacity="0.4"/>
  <rect y="1030" width="1200" height="570" fill="url(#floor)"/>

  <g opacity="0.18" fill="#7b5945">
    <ellipse cx="600" cy="1064" rx="440" ry="56"/>
    <ellipse cx="600" cy="1160" rx="510" ry="78"/>
  </g>

  <g>
    <rect x="148" y="132" width="126" height="980" rx="20" fill="#d2b697"/>
    <rect x="926" y="132" width="126" height="980" rx="20" fill="#d2b697"/>
    <rect x="130" y="96" width="162" height="68" rx="18" fill="#e7d4ba"/>
    <rect x="908" y="96" width="162" height="68" rx="18" fill="#e7d4ba"/>
    <rect x="130" y="1074" width="162" height="64" rx="18" fill="#d3b18d"/>
    <rect x="908" y="1074" width="162" height="64" rx="18" fill="#d3b18d"/>
  </g>

  <g>
    <path d="M300 1040V430c0-110 89-199 199-199h202c110 0 199 89 199 199v610z" fill="#e9d8bf"/>
    <path d="M360 1038V468c0-77 62-139 139-139h202c77 0 139 62 139 139v570z" fill="#d7b895"/>
    <path d="M408 1002V510c0-52 42-94 94-94h196c52 0 94 42 94 94v492z" fill="url(#sky)"/>
    <path d="M600 236c86 0 156 70 156 156v46h-50v-38c0-58-48-106-106-106s-106 48-106 106v38h-50v-46c0-86 70-156 156-156z" fill="#e9d8bf"/>
    <path d="M408 1002h384V558c0-66-54-120-120-120H528c-66 0-120 54-120 120z" fill="none" stroke="#f3e4cc" stroke-width="12"/>
    <path d="M492 1002c18-126 54-210 108-252 54 42 90 126 108 252" fill="#6787a0" opacity="0.32"/>
  </g>

  <g fill="#17334f">
    <rect x="478" y="808" width="34" height="122"/>
    <rect x="686" y="790" width="34" height="140"/>
    <path d="M436 930c0-78 64-142 142-142s142 64 142 142z"/>
    <path d="M632 930c0-64 52-116 116-116s116 52 116 116z"/>
  </g>

  <g>
    <circle cx="648" cy="590" r="44" fill="#ffef9f" opacity="0.22" filter="url(#glow)"/>
    <path d="M640 532c-34 0-62 28-62 62s28 62 62 62c22 0 40-8 52-25-35 2-56-18-56-46 0-22 13-39 34-50-9-2-17-3-30-3z" fill="#f7dd63"/>
  </g>

  <g fill="#fff1cf">
    <circle cx="474" cy="554" r="5"/>
    <circle cx="542" cy="640" r="4"/>
    <circle cx="690" cy="606" r="5"/>
    <circle cx="736" cy="704" r="4"/>
    <circle cx="604" cy="720" r="4"/>
  </g>

  <g transform="translate(270 76)">
    <line x1="0" y1="0" x2="0" y2="120" stroke="#c79a45" stroke-width="6" stroke-linecap="round"/>
    <path d="M-18 120h36l10 18h-56z" fill="#bd8935"/>
    <path d="M-56 138h112l16 22-6 114-18 38h-96l-18-38-6-114z" fill="none" stroke="url(#gold)" stroke-width="8"/>
    <path d="M-42 160h84l12 18-8 82h-92l-8-82z" fill="url(#lanternGlass)"/>
    <ellipse cx="0" cy="210" rx="82" ry="110" fill="#ffd76d" opacity="0.28" filter="url(#glow)"/>
  </g>

  <g transform="translate(930 76)">
    <line x1="0" y1="0" x2="0" y2="120" stroke="#c79a45" stroke-width="6" stroke-linecap="round"/>
    <path d="M-18 120h36l10 18h-56z" fill="#bd8935"/>
    <path d="M-56 138h112l16 22-6 114-18 38h-96l-18-38-6-114z" fill="none" stroke="url(#gold)" stroke-width="8"/>
    <path d="M-42 160h84l12 18-8 82h-92l-8-82z" fill="url(#lanternGlass)"/>
    <ellipse cx="0" cy="210" rx="82" ry="110" fill="#ffd76d" opacity="0.28" filter="url(#glow)"/>
  </g>

  <g>
    <ellipse cx="600" cy="1240" rx="328" ry="84" fill="#2d4b65" opacity="0.24"/>
    <rect x="348" y="1118" width="504" height="210" rx="26" fill="url(#rug)"/>
    <rect x="386" y="1152" width="428" height="142" rx="18" fill="none" stroke="#d8b96f" stroke-width="10"/>
    <rect x="418" y="1184" width="364" height="78" rx="14" fill="none" stroke="#9bc0d4" stroke-width="6"/>
  </g>

  <g transform="translate(606 1100)">
    <path d="M0 44l-84 86h38l46-48 46 48h38z" fill="#8e6236"/>
    <path d="M0 44l84 86h-38l-46-48-46 48h-38z" fill="#7c542d"/>
    <path d="M-6 36l-74 76h148z" fill="#a57541"/>
    <rect x="-74" y="32" width="148" height="28" rx="8" fill="#d5c69f" stroke="#7c542d" stroke-width="6"/>
    <line x1="0" y1="36" x2="0" y2="136" stroke="#7c542d" stroke-width="7"/>
  </g>

  <g transform="translate(448 1148)">
    <ellipse cx="0" cy="216" rx="82" ry="26" fill="#7f726b" opacity="0.16"/>
    <circle cx="0" cy="44" r="62" fill="#f5c8a6"/>
    <path d="M-62 38c10-54 112-54 124 0v18c-12-20-38-32-62-32s-50 12-62 32z" fill="#f4f5f7"/>
    <path d="M-72 132c12-68 48-108 72-108s60 40 72 108v66h-144z" fill="#f6f3ef"/>
    <path d="M-54 134c10 22 30 38 54 38s44-16 54-38" fill="#d6d6d6" opacity="0.54"/>
    <circle cx="-20" cy="44" r="8" fill="#433526"/>
    <circle cx="20" cy="44" r="8" fill="#433526"/>
    <circle cx="-18" cy="42" r="3" fill="#fff"/>
    <circle cx="22" cy="42" r="3" fill="#fff"/>
    <path d="M-18 74q18 18 36 0" fill="none" stroke="#8d5d4f" stroke-width="5" stroke-linecap="round"/>
    <path d="M-12 16c10-18 26-28 48-32 16 8 32 22 36 40-20-14-49-22-84-8z" fill="#7b5338"/>
    <path d="M-76 144l-32 56 54 0 16-44z" fill="#f6f3ef"/>
    <path d="M76 144l32 56-54 0-16-44z" fill="#f6f3ef"/>
  </g>

  <g transform="translate(760 1148)">
    <ellipse cx="0" cy="216" rx="90" ry="28" fill="#7f726b" opacity="0.16"/>
    <circle cx="0" cy="56" r="58" fill="#f5c8a6"/>
    <path d="M-92 160c10-88 56-140 92-140s82 52 92 140v46h-184z" fill="#f6f5f1"/>
    <path d="M-82 92c18-62 54-98 82-98s64 36 82 98c-22-26-52-40-82-40s-60 14-82 40z" fill="#ffffff"/>
    <path d="M-72 110c18 20 42 30 72 30s54-10 72-30" fill="#dde6ea" opacity="0.48"/>
    <circle cx="-18" cy="56" r="8" fill="#433526"/>
    <circle cx="18" cy="56" r="8" fill="#433526"/>
    <circle cx="-16" cy="54" r="3" fill="#fff"/>
    <circle cx="20" cy="54" r="3" fill="#fff"/>
    <path d="M-16 86q16 14 32 0" fill="none" stroke="#8d5d4f" stroke-width="5" stroke-linecap="round"/>
    <path d="M-96 170l-46 34 68 8 20-42z" fill="#f6f5f1"/>
    <path d="M96 170l46 34-68 8-20-42z" fill="#f6f5f1"/>
  </g>

  <g opacity="0.34" stroke="#f2dfc2" fill="none">
    <rect x="36" y="36" width="1128" height="1528" rx="28" stroke-width="4"/>
    <rect x="68" y="68" width="1064" height="1464" rx="22" stroke-width="2.5" stroke-dasharray="6 12"/>
  </g>
</svg>
